<svg xmlns="http://www.w3.org/2000/svg" width="64" height="64" fill="none" id="box-photoshop">
  <path fill="url(#a)" fill-rule="evenodd" d="M49.452 28.373v15.275l-17.456 8.727-17.457-8.727V28.373l17.457-8.73 17.456 8.73Z" clip-rule="evenodd"></path>
  <path fill="url(#b)" fill-rule="evenodd" d="M31.996 19.643v32.732l-17.457-8.727V28.373l17.457-8.73Z" clip-rule="evenodd"></path>
  <path fill="url(#c)" fill-rule="evenodd" d="m56 20.734-6.548 7.637-17.457-8.727 6.546-7.64L56 20.735Z" clip-rule="evenodd"></path>
  <path fill="url(#d)" fill-rule="evenodd" d="m8 20.73 6.548 7.636 17.457-8.727L25.459 12 8 20.73Z" clip-rule="evenodd"></path>
  <path fill="#001E36" d="M24.25 15h15.5C42.1 15 44 16.947 44 19.357v15.283c0 2.41-1.9 4.358-4.25 4.358h-15.5C21.9 39 20 37.051 20 34.642V19.359c0-2.41 1.9-4.36 4.25-4.36Z"></path>
  <path fill="#31A8FF" fill-rule="evenodd" d="M25 21.721v10.385c0 .09.04.131.12.131h1.94c.07-.01.12-.07.11-.141v-3.24c.19 0 .33 0 .43.01.1.01.26.01.5.01.82 0 1.57-.09 2.25-.343a3.43 3.43 0 0 0 1.61-1.23c.4-.566.6-1.283.6-2.15 0-.455-.08-.888-.23-1.312a3.217 3.217 0 0 0-.73-1.15 3.566 3.566 0 0 0-1.34-.828c-.56-.212-1.24-.313-2.06-.313-.3 0-.6 0-.91.01-.15.005-.295.007-.435.01-.15.002-.295.005-.435.01-.131.005-.257.008-.38.01-.13.003-.256.005-.38.01-.23.01-.39.01-.56.01-.07 0-.1.04-.1.111Zm2.18 5.228v-3.39c.07-.011.21-.021.41-.011.19-.01.42-.01.68-.01.41-.01.81.05 1.18.202.29.11.53.313.7.575.16.272.24.585.23.898 0 .444-.1.787-.31 1.04-.22.252-.5.444-.82.534-.37.122-.76.182-1.15.182h-.53c-.111 0-.231-.009-.36-.018l-.03-.002Z" clip-rule="evenodd"></path>
  <path fill="#31A8FF" d="M38.8 26.334a3.52 3.52 0 0 0-.96-.344c-.37-.08-.74-.13-1.12-.13-.2-.01-.41.02-.6.07-.13.03-.24.1-.31.202a.539.539 0 0 0-.08.272c0 .09.04.182.1.262.09.111.21.202.34.273.23.121.47.232.71.333.54.182 1.06.434 1.54.737.33.212.6.494.79.837.16.323.24.677.23 1.04.01.474-.13.948-.39 1.342a2.51 2.51 0 0 1-1.12.898c-.49.212-1.09.323-1.81.323-.46 0-.91-.04-1.36-.131-.35-.06-.7-.172-1.02-.323-.07-.04-.12-.111-.11-.192v-1.756c0-.03.01-.07.04-.09.03-.02.06-.01.09.01.39.232.8.393 1.24.494.38.1.78.151 1.18.151.38 0 .65-.05.83-.14a.47.47 0 0 0 .27-.425c0-.141-.08-.272-.24-.403-.16-.132-.49-.283-.98-.475a6.094 6.094 0 0 1-1.42-.726 2.604 2.604 0 0 1-.76-.858 2.182 2.182 0 0 1-.23-1.03c0-.433.12-.847.34-1.22.25-.404.62-.727 1.05-.93.47-.241 1.06-.352 1.77-.352.41 0 .83.03 1.24.09.3.04.59.122.86.233.04.01.08.05.1.09.01.04.02.081.02.122v1.645c0 .04-.02.08-.05.1-.09.02-.14.02-.18 0Z"></path>
  <path fill="url(#e)" fill-rule="evenodd" d="m49.452 43.647-17.457 8.729V37.101l17.457-8.73v15.276Z" clip-rule="evenodd"></path>
  <path fill="url(#f)" fill-rule="evenodd" d="m14.536 43.647 17.46 8.729V37.101l-17.46-8.73v15.276Z" clip-rule="evenodd"></path>
  <path fill="url(#g)" fill-rule="evenodd" d="M49.452 28.371 56 33.826l-17.459 8.73-6.546-5.455 17.457-8.73Z" clip-rule="evenodd"></path>
  <path fill="url(#h)" fill-rule="evenodd" d="M14.548 28.366 8 33.822l17.459 8.729 6.546-5.455-17.457-8.73Z" clip-rule="evenodd"></path>
  <defs>
    <linearGradient id="a" x1="53.456" x2="52.981" y1="48.303" y2="22.386" gradientUnits="userSpaceOnUse">
      <stop stop-color="#D3D3D3"></stop>
      <stop offset="1" stop-color="#BDBDBD"></stop>
    </linearGradient>
    <linearGradient id="b" x1="29.667" x2="29.667" y1="48.01" y2="24.006" gradientUnits="userSpaceOnUse">
      <stop stop-color="#B6B5B5"></stop>
      <stop offset="1" stop-color="#949494"></stop>
    </linearGradient>
    <linearGradient id="c" x1="48.734" x2="55.224" y1="27.492" y2="12.834" gradientUnits="userSpaceOnUse">
      <stop stop-color="#fff"></stop>
      <stop offset="1" stop-color="#E1E1E1"></stop>
    </linearGradient>
    <linearGradient id="d" x1="22.729" x2="12.252" y1="40.365" y2="18.496" gradientUnits="userSpaceOnUse">
      <stop stop-color="#fff"></stop>
      <stop offset="1" stop-color="#E1E1E1"></stop>
    </linearGradient>
    <linearGradient id="e" x1="47.125" x2="47.125" y1="49.175" y2="31.572" gradientUnits="userSpaceOnUse">
      <stop stop-color="#B6B5B5"></stop>
      <stop offset="1" stop-color="#949494"></stop>
    </linearGradient>
    <linearGradient id="f" x1="16.843" x2="16.792" y1="47.601" y2="32.301" gradientUnits="userSpaceOnUse">
      <stop stop-color="#D3D3D3"></stop>
      <stop offset="1" stop-color="#BDBDBD"></stop>
    </linearGradient>
    <linearGradient id="g" x1="29.279" x2="32.811" y1="29.716" y2="42.641" gradientUnits="userSpaceOnUse">
      <stop stop-color="#fff"></stop>
      <stop offset="1" stop-color="#E1E1E1"></stop>
    </linearGradient>
    <linearGradient id="h" x1="4.246" x2="10.345" y1="33.428" y2="16.942" gradientUnits="userSpaceOnUse">
      <stop stop-color="#fff"></stop>
      <stop offset="1" stop-color="#E1E1E1"></stop>
    </linearGradient>
  </defs>
</svg>
